HIERARCHY
ROOT Hips
{
	OFFSET -3.958830 18.904000 13.208200
	CHANNELS 6 Xposition Yposition Zposition Zrotation Yrotation Xrotation 
	JOINT LHipJoint
	{
		OFFSET 0.000000 0.000000 0.000000
		CHANNELS 3 Zrotation Yrotation Xrotation
		JOINT LeftUpLeg
		{
			OFFSET 1.800000 -1.400000 0.085000
			CHANNELS 3 Zrotation Yrotation Xrotation
			JOINT LeftLeg
			{
				OFFSET 2.215000 -6.000000 0.000000
				CHANNELS 3 Zrotation Yrotation Xrotation
				JOINT LeftFoot
				{
					OFFSET 2.500000 -6.900000 0.000000
					CHANNELS 3 Zrotation Yrotation Xrotation
					JOINT LeftToeBase
					{
						OFFSET 0.200000 -0.500000 1.950000
						CHANNELS 3 Zrotation Yrotation Xrotation
						End Site
						{
							OFFSET 0.000000 0.000000 0.000000
						}
					}
				}
			}
		}
	}
	JOINT RHipJoint
	{
		OFFSET 0.000000 0.000000 0.000000
		CHANNELS 3 Zrotation Yrotation Xrotation
		JOINT RightUpLeg
		{
			OFFSET -1.800000 -1.400000 0.085000
			CHANNELS 3 Zrotation Yrotation Xrotation
			JOINT RightLeg
			{
				OFFSET -2.215000 -6.000000 0.000000
				CHANNELS 3 Zrotation Yrotation Xrotation
				JOINT RightFoot
				{
					OFFSET -2.500000 -6.900000 0.000000
					CHANNELS 3 Zrotation Yrotation Xrotation
					JOINT RightToeBase
					{
						OFFSET -0.200000 -0.500000 1.950000
						CHANNELS 3 Zrotation Yrotation Xrotation
						End Site
						{
							OFFSET 0.000000 0.000000 0.000000
						}
					}
				}
			}
		}
	}
	JOINT LowerBack
	{
		OFFSET 0.000000 0.000000 0.000000
		CHANNELS 3 Zrotation Yrotation Xrotation
		JOINT Spine
		{
			OFFSET -0.087000 1.940000 -0.288900
			CHANNELS 3 Zrotation Yrotation Xrotation
			JOINT Spine1
			{
				OFFSET 0.000000 1.950000 0.060000
				CHANNELS 3 Zrotation Yrotation Xrotation
				JOINT Neck
				{
					OFFSET 0.000000 0.000000 0.000000
					CHANNELS 3 Zrotation Yrotation Xrotation
					JOINT Neck1
					{
						OFFSET 0.000000 1.600000 0.340000
						CHANNELS 3 Zrotation Yrotation Xrotation
						JOINT Head
						{
							OFFSET 0.000000 1.667000 -0.240000
							CHANNELS 3 Zrotation Yrotation Xrotation
							End Site
							{
								OFFSET 0.000000 0.000000 0.000000
							}
						}
					}
				}
				JOINT LeftShoulder
				{
					OFFSET 0.000000 0.000000 0.000000
					CHANNELS 3 Zrotation Yrotation Xrotation
					JOINT LeftArm
					{
						OFFSET 2.700000 1.550000 -0.730000
						CHANNELS 3 Zrotation Yrotation Xrotation
						JOINT LeftForeArm
						{
							OFFSET 5.450000 0.000000 0.000000
							CHANNELS 3 Zrotation Yrotation Xrotation
							JOINT LeftHand
							{
								OFFSET 3.450000 0.000000 0.000000
								CHANNELS 3 Zrotation Yrotation Xrotation
								JOINT LeftHandIndex1
								{
									OFFSET 0.750000 0.000000 0.000000
									CHANNELS 3 Zrotation Yrotation Xrotation
									End Site
									{
										OFFSET 0.000000 0.000000 0.000000
									}
								}
							}
						}
					}
				}
				JOINT RightShoulder
				{
					OFFSET 0.000000 0.000000 0.000000
					CHANNELS 3 Zrotation Yrotation Xrotation
					JOINT RightArm
					{
						OFFSET -2.700000 1.550000 -0.730000
						CHANNELS 3 Zrotation Yrotation Xrotation
						JOINT RightForeArm
						{
							OFFSET -5.450000 0.000000 0.000000
							CHANNELS 3 Zrotation Yrotation Xrotation
							JOINT RightHand
							{
								OFFSET -3.450000 0.000000 0.000000
								CHANNELS 3 Zrotation Yrotation Xrotation
								JOINT RightHandIndex1
								{
									OFFSET -0.750000 0.000000 0.000000
									CHANNELS 3 Zrotation Yrotation Xrotation
									End Site
									{
										OFFSET 0.000000 0.000000 0.000000
									}
								}
							}
						}
					}
				}
			}
		}
	}
}
MOTION
Frames: 13
Frame Time: 0.016667
0.053050 16.678380 -1.049980 -3.949605 -0.542778 -5.146341 -15.073015 12.865841 3.587663 9.811565 -3.628274 -16.558457 -17.226101 15.094169 35.470513 0.663178 8.556286 1.634629 0.229310 0.107460 0.081930 18.257807 -10.625120 2.976965 -6.752499 3.882015 -13.191037 18.784450 -13.380726 33.577254 -0.898422 -6.750160 2.081886 0.065720 0.206820 0.126950 -3.695704 -1.565109 -8.369211 10.727966 -0.539569 17.663294 -4.129086 2.103695 16.391252 3.481447 -3.736358 -18.917685 -8.999502 2.219524 36.378548 -0.406250 -0.258980 -6.870630 -20.760803 -31.576948 11.057861 -39.659282 -7.900092 -4.611503 -5.781508 -21.624238 -0.951614 -3.536572 2.968539 0.330110 0.080990 0.011250 0.157250 14.716083 36.792983 16.377147 41.941124 3.629106 -9.789918 9.588522 28.994211 -0.634223 2.018898 -1.376731 -0.103340 0.221960 0.009910 -0.071650 
0.054830 16.658290 -1.050390 -3.990836 -0.616585 -5.162704 -15.077184 12.820874 3.621952 10.201743 -3.681027 -16.774901 -17.718848 15.449355 35.751970 0.691277 8.711810 1.586611 0.222810 0.096580 0.074050 18.261008 -10.574796 2.985495 -7.084763 4.022656 -13.425604 19.288661 -13.721376 33.968895 -0.919986 -6.877324 2.043296 0.062520 0.217780 0.127350 -3.694831 -1.579349 -8.396667 10.846565 -0.586580 17.791961 -4.144089 2.096280 16.177597 3.485449 -3.833469 -18.845292 -9.159239 2.259395 36.218138 -0.471700 -0.271950 -6.682480 -20.818718 -31.202933 10.921579 -39.240670 -7.649217 -4.644451 -6.071300 -21.744288 -0.903387 -3.546420 2.964100 0.329530 0.088880 0.002140 0.159300 14.764168 36.476969 16.338296 41.395429 3.303435 -9.725935 9.781921 28.924813 -0.563814 2.014744 -1.374615 -0.109710 0.224950 0.015250 -0.072210 
0.055800 16.619740 -1.050020 -4.038891 -0.746501 -5.176416 -15.092096 12.737663 3.691213 10.940714 -3.775928 -17.230201 -18.609926 16.140311 36.343180 0.748389 9.010722 1.494033 0.207110 0.074740 0.057960 18.261367 -10.477950 2.998747 -7.629128 4.277994 -13.872688 20.099258 -14.325536 34.727908 -0.958646 -7.104797 1.974017 0.053860 0.238080 0.129070 -3.674970 -1.611445 -8.449485 10.907966 -0.614279 18.024515 -4.116195 2.108313 15.712212 3.502850 -3.913793 -18.674535 -9.258011 2.302856 35.935726 -0.652580 -0.226100 -6.316650 -20.866232 -30.477149 10.672719 -38.548758 -7.199320 -4.709806 -6.586571 -21.974635 -0.815751 -3.568006 2.955567 0.326770 0.104910 -0.014450 0.160260 14.763826 35.814505 16.218819 40.531796 2.764670 -9.647819 10.222939 28.902903 -0.429712 2.008566 -1.370240 -0.119930 0.228900 0.027350 -0.073010 
0.055240 16.571130 -1.049480 -4.112083 -0.877975 -5.246213 -15.113996 12.632628 3.797153 11.978054 -3.879676 -17.761783 -19.920728 17.104826 37.017970 0.850439 9.390355 1.371490 0.196390 0.060280 0.049410 18.257927 -10.340087 3.022911 -8.282337 4.580895 -14.324591 21.263682 -15.130972 35.563997 -1.021248 -7.382923 1.881828 0.039800 0.241530 0.135830 -3.640779 -1.680126 -8.541848 10.983916 -0.683810 18.469466 -4.136783 2.136947 14.983871 3.547001 -3.976982 -18.579504 -9.406088 2.351606 35.893068 -0.756480 -0.172350 -5.978050 -21.066083 -29.627599 10.432185 -37.415677 -6.399174 -4.850279 -7.272731 -22.316123 -0.673828 -3.574315 2.962373 0.321220 0.108720 -0.016720 0.160130 14.850768 35.042445 16.104944 39.428100 1.950626 -9.599102 10.790154 28.930567 -0.248485 2.017364 -1.368616 -0.114230 0.218830 0.030770 -0.069400 
0.051910 16.517980 -1.049730 -4.113545 -0.914157 -5.399524 -15.154014 12.553041 3.910690 12.868622 -4.026846 -18.324844 -21.055834 18.068788 37.884217 0.961521 9.759882 1.248537 0.186820 0.050270 0.045650 18.234561 -10.180502 3.053342 -9.053470 4.845007 -14.724224 22.592584 -16.047529 36.375640 -1.094229 -7.677132 1.781457 0.023620 0.230120 0.139330 -3.553651 -1.825443 -8.652015 10.735637 -0.691835 19.172726 -3.942554 2.182634 13.923269 3.587130 -3.968915 -18.465649 -9.484260 2.375569 36.060628 -0.815880 -0.083360 -5.754270 -21.341986 -28.551063 10.112081 -36.033817 -5.466244 -5.025493 -8.155430 -22.794124 -0.473494 -3.569675 2.974084 0.317910 0.101860 -0.010440 0.155320 15.026921 34.025429 15.959016 37.983835 0.814202 -9.618480 11.663748 29.171758 0.015079 2.034091 -1.366305 -0.102900 0.201920 0.030320 -0.066810 
0.048000 16.462720 -1.049160 -4.173295 -0.933263 -5.582578 -15.202125 12.476542 4.048385 13.943171 -4.167635 -18.947351 -22.341568 19.161768 38.792581 1.067053 10.169827 1.115621 0.185470 0.039610 0.046840 18.205446 -10.000234 3.076497 -9.773759 5.079559 -15.021646 23.904266 -16.976670 37.093846 -1.173008 -7.958724 1.697064 0.007060 0.216790 0.140620 -3.447886 -2.019819 -8.774979 10.508237 -0.731617 20.060296 -3.692942 2.222371 12.487245 3.649425 -4.024412 -18.279342 -9.747186 2.432316 36.395127 -0.926590 -0.009040 -5.771470 -21.607430 -27.170605 9.682888 -34.602901 -4.435648 -5.179070 -9.209437 -23.343034 -0.237343 -3.560247 2.977187 0.334230 0.091630 -0.004170 0.153860 15.158518 32.759191 15.740984 36.343494 -0.453560 -9.616105 12.738259 29.468841 0.361541 2.039230 -1.359164 -0.098670 0.190480 0.029490 -0.073890 
0.045000 16.409620 -1.051960 -4.249303 -0.905146 -5.985518 -15.225500 12.402508 4.154161 14.798444 -4.300459 -19.332277 -23.284771 20.128981 39.801166 1.168877 10.525118 0.998980 0.188840 0.047910 0.044130 18.200091 -9.863398 3.094571 -10.287641 5.277129 -15.186942 24.854493 -17.842468 38.027434 -1.256421 -8.231288 1.605868 0.001760 0.199330 0.136850 -3.411647 -2.150178 -8.863728 10.615927 -0.973142 20.998833 -3.801908 2.202815 11.594899 3.667831 -4.256048 -18.238540 -10.347430 2.633050 36.684897 -0.613820 -0.073000 -6.092320 -21.403025 -26.248546 9.431077 -33.353154 -3.632171 -5.362385 -9.798543 -23.958307 -0.070616 -3.536501 2.985671 0.345800 0.070920 0.010430 0.153820 14.925784 32.014447 15.646048 35.197512 -1.319741 -9.675264 12.967808 29.788056 0.530049 2.048671 -1.352523 -0.089880 0.183950 0.025500 -0.070760 
0.043310 16.354550 -1.052000 -4.337963 -1.000201 -6.178146 -15.255550 12.321077 4.271623 15.774414 -4.368158 -19.853092 -24.346109 21.148789 40.625448 1.280348 10.865827 0.894544 0.196730 0.053170 0.048690 18.191117 -9.707990 3.122194 -10.785716 5.541587 -15.595807 25.797345 -18.736108 39.010771 -1.342269 -8.507440 1.519801 -0.010650 0.181340 0.140270 -3.360304 -2.289333 -8.965291 10.692294 -1.116746 21.829157 -3.857589 2.255926 10.217639 3.719748 -4.368047 -18.061127 -10.745469 2.736029 37.029532 -0.444820 -0.109050 -6.131690 -21.497526 -24.991728 9.046006 -31.893579 -2.732428 -5.422585 -10.622400 -24.415751 0.183522 -3.517671 3.003195 0.353730 0.053850 0.024530 0.158190 14.907874 30.872809 15.416436 33.672706 -2.350544 -9.552197 13.826883 29.960979 0.852182 2.066505 -1.353573 -0.073850 0.168120 0.014160 -0.068190 
0.040580 16.297170 -1.047380 -4.460342 -1.089242 -6.082004 -15.292340 12.211881 4.418243 16.925699 -4.406014 -20.601824 -25.747447 22.288279 41.187438 1.382921 11.225890 0.790039 0.185660 0.029660 0.042410 18.182220 -9.528279 3.151900 -11.243634 5.808573 -16.194951 26.839696 -19.650821 39.818305 -1.413516 -8.772364 1.445394 -0.031540 0.179150 0.143320 -3.301039 -2.429422 -9.081812 10.742340 -1.203387 22.416611 -3.879119 2.332996 8.345802 3.770855 -4.350692 -17.689840 -10.882720 2.755120 37.307741 -0.513110 -0.079260 -5.738600 -21.882109 -23.383736 8.520728 -30.107609 -1.666090 -5.363797 -11.776079 -24.840086 0.544382 -3.518022 3.012423 0.363510 0.051360 0.024250 0.160100 15.158737 29.262231 15.013893 31.789078 -3.546341 -9.290984 15.305328 30.129501 1.338432 2.082706 -1.352440 -0.074420 0.156250 0.014580 -0.071430 
0.036560 16.245530 -1.041430 -4.425506 -1.159917 -6.089489 -15.317556 12.120454 4.525823 17.701108 -4.445671 -21.088686 -26.847008 23.245726 41.706004 1.471496 11.508114 0.708741 0.175690 0.013940 0.036230 18.177952 -9.386094 3.187521 -11.866466 6.003434 -16.677273 27.890963 -20.552914 40.512615 -1.483899 -9.023502 1.369319 -0.047870 0.171580 0.141980 -3.264066 -2.530404 -9.177027 10.675908 -1.299799 22.929982 -4.010023 2.384276 6.864328 3.780841 -4.359839 -17.458146 -11.092684 2.815373 37.727467 -0.439970 -0.096450 -5.513400 -22.052674 -22.140099 8.155990 -28.435341 -0.677224 -5.258424 -12.064515 -25.035084 0.760357 -3.511501 3.016483 0.373390 0.042290 0.028780 0.158900 15.301261 28.029640 14.714479 30.260581 -4.407028 -8.959084 15.570664 30.015041 1.593902 2.100209 -1.343043 -0.073590 0.147320 0.015250 -0.072710 
0.032030 16.198030 -1.037240 -4.345740 -1.168414 -6.288138 -15.337790 12.038645 4.594527 18.239321 -4.503099 -21.331580 -27.620991 24.056900 42.316505 1.547496 11.750049 0.642476 0.175710 0.013940 0.036690 18.175323 -9.277072 3.220467 -12.561042 6.109146 -16.905829 29.005085 -21.449238 41.041670 -1.554184 -9.266886 1.297552 -0.052460 0.166340 0.139090 -3.235648 -2.586890 -9.240873 10.516543 -1.350993 23.393733 -4.078582 2.405016 6.133816 3.783477 -4.330528 -17.293645 -11.113863 2.818095 37.909166 -0.399530 -0.095550 -5.502360 -21.877847 -21.341214 7.906090 -26.985254 -0.088134 -5.177181 -12.023327 -25.272856 0.893585 -3.507442 3.017080 0.376760 0.036980 0.032220 0.160150 15.114279 27.220814 14.532391 29.026707 -4.968827 -8.736087 15.298105 30.037258 1.696589 2.106204 -1.338124 -0.071570 0.145060 0.011530 -0.072780 
0.027400 16.155050 -1.035310 -4.215736 -1.152693 -6.654663 -15.355059 11.971859 4.640021 18.565287 -4.580933 -21.396328 -28.159417 24.787431 43.048620 1.620201 11.981560 0.582578 0.177940 0.015190 0.037040 18.172030 -9.201458 3.242783 -13.097901 6.190375 -16.975980 29.773510 -22.219616 41.668457 -1.617767 -9.492141 1.231159 -0.054450 0.166840 0.143310 -3.209006 -2.611048 -9.282746 10.256846 -1.333264 23.829766 -4.099749 2.447017 6.052621 3.790525 -4.243215 -17.298588 -10.968341 2.765231 38.006018 -0.364610 -0.129410 -5.397660 -21.407620 -21.046432 7.831599 -25.845748 0.253416 -5.171841 -11.625510 -25.609863 0.927310 -3.507319 3.019860 0.375620 0.037860 0.034270 0.163770 14.631884 26.897665 14.534948 28.251828 -5.420661 -8.695734 14.375364 30.229740 1.635134 2.099488 -1.339048 -0.067430 0.142120 0.008920 -0.070890 
0.023310 16.116080 -1.040220 -4.209264 -1.136769 -7.251891 -15.368944 11.922936 4.660780 18.825849 -4.656895 -21.259229 -28.421815 25.390518 43.871936 1.678248 12.191670 0.526031 0.183830 0.024730 0.040900 18.170578 -9.150120 3.253860 -13.278693 6.288612 -16.823041 30.250212 -22.845289 42.365900 -1.673981 -9.691912 1.170343 -0.046170 0.167420 0.145170 -3.188738 -2.617805 -9.296315 10.134111 -1.352901 24.395609 -4.059120 2.468135 6.710581 3.835097 -4.215171 -17.444126 -10.814030 2.690355 37.771852 -0.357040 -0.168680 -5.515320 -20.649482 -21.197232 7.888743 -25.136323 0.298673 -5.307375 -10.641881 -26.163230 0.811324 -3.507468 3.018848 0.369480 0.040350 0.034360 0.164160 13.794440 27.101644 14.718987 27.722113 -5.649209 -8.765688 12.959787 30.455832 1.422352 2.082778 -1.342385 -0.065080 0.143470 0.007060 -0.069460 
